<svg id="Layer_1" data-name="Layer 1" xmlns="http://www.w3.org/2000/svg" width="975" height="975" viewBox="0 0 975 975"><title>stage-audio-works-blue-geometric-background</title><rect width="975" height="975" style="fill:#0069c1"/><polygon points="382.74 171.79 133.59 6.28 264.09 92.97 382.74 171.79" style="fill:#0069c1"/><path d="M556.65,315.57h0l-0.09-.25Z" style="fill:#7ea7c9"/><polygon points="921.52 681.3 921.52 682.22 921.52 682.23 975 724.75 975 723.96 975 682.12 921.56 681.3 921.52 681.3" style="fill:#0174d2"/><path d="M921.52,345.65V490.29s23.89-18.92,53.48-42.51V348.63Z" style="fill:#0174d2"/><polygon points="313.46 739.96 454.37 798.37 425.56 711.44 313.45 739.95 313.46 739.96" style="fill:#0174d2"/><polygon points="684.84 755.95 764.25 682.93 632.67 698.22 684.84 755.95" style="fill:#0174d2"/><path d="M468.39,616.17L320.45,599.48l105.11,112s0,0,0,0Z" style="fill:#0174d2"/><path d="M764.25,682.93l57.62-53.55s-120.43-82.52-123.79-85.54Z" style="fill:#0174d2"/><polygon points="0 230.92 3.83 227.89 0 227.69 0 230.92" style="fill:#0174d2"/><polygon points="264.4 92.51 133.59 6.28 382.74 171.79 482.86 0 441.28 0 264.4 92.51" style="fill:#0174d2"/><polygon points="313.19 371.61 320.45 599.48 528.07 471.75 528.07 471.75 407.65 415.19 313.19 371.61" style="fill:#0069c1"/><polygon points="313.45 739.96 320.45 599.48 220.8 650.24 313.45 739.96" style="fill:#0069c1"/><polygon points="0 718.86 40.16 726.73 0 699.09 0 718.86" style="fill:#0069c1"/><polygon points="0 390.17 0 427.94 0 429.55 5.9 387.37 0 390.17" style="fill:#0069c1"/><polygon points="0 206.13 0 226.1 3.83 227.89 0 206.13" style="fill:#0069c1"/><polygon points="133.59 6.28 217.68 281.66 264.09 92.97 133.59 6.28" style="fill:#0069c1"/><polygon points="518.85 0 482.86 0 382.74 171.79 610.09 160.66 518.85 0" style="fill:#0069c1"/><path d="M921.52,611.76V681.3h0L975,682.12V643.2Z" style="fill:#0676d5"/><path d="M529.89,704.49l-104.31,7h0l0,0c2.94,2.55,161.89,57.69,161.89,57.69l45.16-70.94Z" style="fill:#0676d5"/><polygon points="69.23 897.35 141.9 804.62 40.16 726.73 52.62 803.7 69.23 897.35" style="fill:#0676d5"/><path d="M587.56,769.16h0L574.27,872.78l133.92-22.26-0.45-.3C699.94,844.9,590.27,770.2,587.56,769.16Z" style="fill:#0676d5"/><polygon points="860.44 820.9 860.95 821.32 860.79 821.66 861.2 821.52 861.45 821.43 861.59 821.39 921.52 800.92 975 782.29 975 724.75 921.52 682.23 860.44 820.9" style="fill:#0676d5"/><path d="M494.86,918.67l79.41-45.89c-0.78-1.39-84.87-92.48-84.87-92.48Z" style="fill:#0676d5"/><polygon points="338.37 858.17 338.13 858.08 338.02 858.04 251.93 822.01 332.21 918.67 357.05 948.58 350.87 918.67 338.37 858.17" style="fill:#0676d5"/><path d="M58.07,598.78c0.78,1.86-17.91,128-17.91,128L158.5,677.36l62.29-27.12L96.22,628.68Z" style="fill:#0676d5"/><path d="M468.43,616a1,1,0,0,0,0,.12L621,616.86l77.08-73-170-72.09Z" style="fill:#0676d5"/><path d="M110.75,455.06l-0.11-.23-0.08-.17-0.84-.53-43.08-89L3.83,227.89,5.9,387.37c0.89,0.8,33.34,21.68,70.25,45.36Z" style="fill:#0676d5"/><polygon points="313.19 371.61 220.8 650.24 320.45 599.48 313.19 371.61" style="fill:#0676d5"/><polygon points="698.07 543.84 793.84 292.79 645.91 312.26 698.07 543.84" style="fill:#0676d5"/><polygon points="0 227.69 3.83 227.89 0 226.1 0 227.69" style="fill:#0676d5"/><path d="M102.44,178.74s0.29-1.73.8-4.81l-0.8-.76L66.64,365.12l150.75-83.71Z" style="fill:#0676d5"/><polygon points="382.74 171.79 313.19 371.61 556.11 314.12 382.74 171.79" style="fill:#0676d5"/><polygon points="882.6 0 727.3 0 921.52 77.21 882.6 0" style="fill:#0676d5"/><polygon points="633.05 0 518.85 0 610.09 160.66 633.05 0" style="fill:#0676d5"/><path d="M0,0V206.13l3.83,21.77L133,7.32a4.1,4.1,0,0,1,.42-1.08L99.38,0H0Z" style="fill:#006ac3"/><path d="M237.29,0H135.62l-2,6.28L264.4,92.51S252,50.26,237.29,0Z" style="fill:#006ac3"/><path d="M190,949.21c0.85,3.29,3.48,12.59,7.27,25.79h0.3L190,949.22H190Z" style="fill:#4f87b5"/><polygon points="190.01 948.03 190.01 948.04 189.97 947.88 189.95 947.88 190.01 948.03" style="fill:#cdddea"/><path d="M921.52,74.43c0,2.54,30,54,53.48,93.95V98.26C945.55,84.36,921.52,73.35,921.52,74.43Z" style="fill:#006ac3"/><polygon points="975 348.63 975 259.29 921.52 345.65 975 348.63" style="fill:#006ac3"/><polygon points="623.64 918.67 650.58 943.71 666.05 918.67 708.19 850.52 574.27 872.78 623.64 918.67" style="fill:#006ac3"/><polygon points="376.42 918.67 357.05 948.58 494.86 918.67 454.37 798.37 376.42 918.67" style="fill:#006ac3"/><polygon points="251.93 822.01 141.9 804.62 69.23 897.35 161.62 864.9 179.98 918.67 189.95 947.88 189.97 947.88 190.01 948.04 190.43 949.27 205.22 918.67 251.93 822.01" style="fill:#006ac3"/><path d="M320.45,599.48l-7,140.48s0,0,0,0l112.11-28.51Z" style="fill:#006ac3"/><path d="M707.74,850.22l0.45,0.3-0.18-.74-23.17-93.83-97.28,13.21C590.27,770.2,699.94,844.9,707.74,850.22Z" style="fill:#006ac3"/><path d="M684.84,755.95l85.64-8.35s51.39-117.52,51.39-118.22l-57.62,53.55Z" style="fill:#006ac3"/><polygon points="632.67 698.22 764.25 682.93 698.07 543.84 632.67 698.22" style="fill:#006ac3"/><polygon points="620.99 616.86 468.39 616.17 529.89 704.49 620.99 616.86" style="fill:#006ac3"/><path d="M821.87,629.38l99.65-140-87.2-43.59C834.32,448.57,821.87,629.38,821.87,629.38Z" style="fill:#006ac3"/><polygon points="220.8 650.24 183.43 501.42 58.07 598.78 96.22 628.68 220.8 650.24" style="fill:#006ac3"/><polygon points="109.72 454.13 273.74 411.48 66.64 365.12 109.72 454.13" style="fill:#006ac3"/><path d="M921.52,78.09V77.21l-75.42,19-67.84,17.13L610.09,160.66,793.84,292.79S917.36,92.9,921.52,78.09Z" style="fill:#006ac3"/><path d="M133.49,6.15L128.42,0h-29l34,6.24A0.23,0.23,0,0,1,133.49,6.15Z" style="fill:#006ac3"/><path d="M0,956.86V975H180.38c4.31-13.06,7.53-22.64,8.74-25.9L0,923.26v33.6Z" style="fill:#006ac3"/><polygon points="497.02 975 618.99 975 650.58 946.49 791.52 975 814.69 975 803.77 918.85 803.77 918.84 650.58 943.71 494.86 918.67 497.02 975" style="fill:#006ac3"/><polygon points="190.43 949.27 190.04 949.22 197.53 975 252.9 975 192.88 949.27 190.43 949.27" style="fill:#006ac3"/><polygon points="971.98 911.78 972.32 912.07 971.47 912.45 971.27 912.53 957.06 918.67 957.12 918.67 973.12 918.67 973.16 918.67 975 918.67 975 907.91 972.01 911.75 971.98 911.78" style="fill:#097ad9"/><polygon points="861.59 821.39 921.52 836.42 975 849.84 975 782.29 921.52 800.92 861.59 821.39" style="fill:#097ad9"/><path d="M921.52,0V74.43c0-1.08,24,9.93,53.48,23.83V0H921.52Z" style="fill:#097ad9"/><polygon points="425.58 711.44 425.56 711.44 425.58 711.44 425.58 711.44" style="fill:#097ad9"/><path d="M451.69,739.62c-14.87-16.11-25.21-27.29-26.07-28.14l0,0h0l28.81,86.93,40.49,120.3L489.4,780.29Z" style="fill:#097ad9"/><path d="M708.19,850.52c0,2.08,62.28-102.92,62.28-102.92l-85.64,8.35L708,849.78l0-.07C708.12,850.12,708.19,850.43,708.19,850.52Z" style="fill:#097ad9"/><polygon points="821.87 629.38 861.57 707.97 921.52 682.23 821.87 629.38" style="fill:#097ad9"/><path d="M698.07,543.84c3.37,3,123.79,85.54,123.79,85.54s12.45-180.81,12.45-183.6Z" style="fill:#097ad9"/><polygon points="0 598 58.07 598.78 0 562.67 0 598" style="fill:#097ad9"/><path d="M468.39,616.17a1,1,0,0,1,0-.12l59.64-144.29h0L320.45,599.48Z" style="fill:#097ad9"/><path d="M133.49,6.15l0.1,0.12,2-6.28h-7.2Z" style="fill:#097ad9"/><path d="M237.52,0h-0.24C252,50.26,264.4,92.51,264.4,92.51L441.28,0H237.52Z" style="fill:#097ad9"/><polygon points="357.05 948.58 302.37 948.81 359.38 949.27 386.97 975 497.02 975 494.86 918.67 357.05 948.58" style="fill:#097ad9"/><polygon points="647.86 975 791.52 975 650.58 946.49 647.86 975" style="fill:#097ad9"/><polygon points="623.64 918.67 574.27 872.78 494.86 918.67 650.58 943.71 623.64 918.67" style="fill:#097ad9"/><polygon points="971.98 911.78 921.52 870.67 881.57 838.12 817.91 975 826.91 975 921.52 934.05 922.11 933.79 956.53 918.91 957.12 918.67 957.06 918.67 971.27 912.53 971.47 912.45 972.32 912.07 971.98 911.78" style="fill:#0676d5"/><path d="M103.25,173.94c1.48-8.91,4.9-29.24,8.92-52.81C120,74.9,130.28,16.29,133,7.32L3.83,227.89l98.61-54.72Z" style="fill:#0676d5"/><polygon points="645.91 312.26 610.09 160.66 556.11 314.12 698.07 543.84 645.91 312.26" style="fill:#0676d5"/><polygon points="666.05 918.67 650.58 943.71 803.77 918.84 708.19 850.52 666.05 918.67" style="fill:#0676d5"/><path d="M708,849.78l0.18,0.74c0-.09-0.07-0.41-0.14-0.82Z" style="fill:#0676d5"/><path d="M451.69,739.62l37.71,40.68s84.09,91.09,84.87,92.48l13.24-103.62s-159-55.14-161.89-57.69C426.48,712.32,436.83,723.5,451.69,739.62Z" style="fill:#0676d5"/><path d="M331,823.88c-7.15-34.65-17.17-83.05-17.53-83.92h0L251.93,822,338,858C337.53,855.63,334.63,841.54,331,823.88Z" style="fill:#0676d5"/><path d="M861.57,708l-39.7-78.59c0,0.7-51.39,118.22-51.39,118.22Z" style="fill:#0676d5"/><polygon points="468.39 616.17 425.57 711.43 425.56 711.44 425.58 711.44 529.89 704.49 468.39 616.17" style="fill:#0676d5"/><polygon points="921.52 611.76 921.52 490.29 921.52 489.37 821.87 629.38 921.52 612 921.52 611.76" style="fill:#0676d5"/><path d="M110.75,455.06l-34.6-22.34C39.24,409,6.79,388.16,5.9,387.37L0,429.55V455l183.43,46.42s-34.32-21.94-72.78-46.59Z" style="fill:#0676d5"/><polygon points="313.19 371.61 273.74 411.48 185.5 501.42 184.22 500.62 183.43 501.42 220.8 650.24 313.19 371.61" style="fill:#0676d5"/><path d="M556.56,315.32l-0.25-.69-0.2-.51a4.38,4.38,0,0,0,.54,1.44Z" style="fill:#0676d5"/><path d="M921.52,346.57L793.84,292.79l40.48,153S921.52,347.5,921.52,346.57Z" style="fill:#0676d5"/><path d="M528.08,471.73l28-157.6L407.65,415.19l120.42,56.57A0.06,0.06,0,1,0,528.08,471.73Z" style="fill:#0676d5"/><polygon points="671.5 0 633.05 0 610.09 160.66 778.26 113.37 671.5 0" style="fill:#0676d5"/><polygon points="217.68 281.66 382.74 171.79 264.09 92.97 217.68 281.66" style="fill:#0676d5"/><polygon points="647.86 975 650.58 946.49 618.99 975 647.86 975" style="fill:#0676d5"/><polygon points="251.93 822.01 205.22 918.67 190.43 949.27 192.88 949.27 302.37 948.81 357.05 948.58 332.21 918.67 251.93 822.01" style="fill:#0676d5"/><polygon points="861.59 821.39 861.45 821.43 881.57 838.12 921.52 870.67 971.98 911.78 972.01 911.75 975 907.91 975 849.84 921.52 836.42 861.59 821.39" style="fill:#0170cd"/><polygon points="975 643.2 975 606.93 921.52 611.76 975 643.2" style="fill:#0170cd"/><path d="M975,522.7V447.78c-29.59,23.59-53.48,42.51-53.48,42.51Z" style="fill:#0170cd"/><polygon points="0 872.38 0 873.92 0 911.71 69.23 897.35 52.62 803.7 0 872.38" style="fill:#0170cd"/><path d="M556.3,314.63l0.25,0.69,0.09,0.25h0a4.38,4.38,0,0,1-.54-1.44l-28,157.6a0.06,0.06,0,1,1,0,0l170,72.09-142-229.72Z" style="fill:#0170cd"/><path d="M708.19,850.52l95.58,68.31,1-.17L770.48,747.6S708.19,852.61,708.19,850.52Z" style="fill:#0170cd"/><path d="M331,823.88c3.64,17.66,6.54,31.75,7,34.16l0.11,0,0.23,0.09,12.5,60.5L357,948.58l19.37-29.91,77.95-120.3L313.46,740C313.81,740.83,323.83,789.23,331,823.88Z" style="fill:#0170cd"/><polygon points="220.8 650.24 141.9 804.62 251.93 822.01 220.8 650.24" style="fill:#0170cd"/><polygon points="860.44 820.9 921.52 682.23 861.57 707.97 770.48 747.6 860.41 820.97 860.44 820.9" style="fill:#0170cd"/><polygon points="921.52 681.3 921.52 612 821.87 629.38 921.52 682.23 921.52 682.22 921.52 681.3" style="fill:#0170cd"/><path d="M587.51,769.16s0,0,0,0l97.28-13.21-52.17-57.72Z" style="fill:#0170cd"/><path d="M58.07,598.78L0,598V699.09l40.16,27.64S58.85,600.64,58.07,598.78Z" style="fill:#0170cd"/><polygon points="0 386.27 0 390.17 5.9 387.37 0 386.27" style="fill:#0170cd"/><polygon points="0 455 0 547.03 183.43 501.42 0 455" style="fill:#0170cd"/><path d="M921.52,346.57c0,0.93-87.2,99.21-87.2,99.21l87.2,43.59V346.57Z" style="fill:#0170cd"/><polygon points="793.84 292.79 698.07 543.84 834.32 445.78 793.84 292.79" style="fill:#0170cd"/><polygon points="3.83 227.89 66.64 365.12 102.44 173.17 3.83 227.89" style="fill:#0170cd"/><polygon points="273.74 411.48 313.19 371.61 66.64 365.12 273.74 411.48" style="fill:#0170cd"/><polygon points="407.65 415.19 556.11 314.12 313.19 371.61 407.65 415.19" style="fill:#0170cd"/><path d="M921.52,74.43V0H882.6l38.92,77.21V345.65L975,259.29V168.37C951.52,128.46,921.52,77,921.52,74.43Z" style="fill:#0170cd"/><path d="M217.68,281.66L133.59,6.28l-0.1-.12a0.23,0.23,0,0,0-.09.09A4.1,4.1,0,0,0,133,7.32c-2.7,9-12.94,67.58-20.82,113.8-4,23.57-7.43,43.91-8.92,52.81-0.51,3.08-.8,4.81-0.8,4.81L217.39,281.41l95.8,90.2,69.55-199.82Z" style="fill:#0170cd"/><polygon points="671.5 0 778.26 113.37 846.11 96.24 921.52 77.21 727.3 0 671.5 0" style="fill:#0170cd"/><polygon points="921.52 975 921.52 934.05 826.91 975 921.52 975" style="fill:#0170cd"/><polygon points="302.37 948.81 192.88 949.27 252.9 975 386.97 975 359.38 949.27 302.37 948.81" style="fill:#0170cd"/><polygon points="190.01 948.03 189.95 947.88 179.98 918.67 161.62 864.9 69.23 897.35 119 918.67 190.43 949.27 190.01 948.04 190.01 948.03" style="fill:#0170cd"/><polygon points="921.52 490.29 921.52 611.76 975 606.93 975 522.71 921.52 490.29" style="fill:#097ad9"/><polygon points="973.12 918.67 957.12 918.67 956.53 918.91 922.11 933.79 921.52 934.05 921.52 975 975 975 975 918.67 973.16 918.67 973.12 918.67" style="fill:#097ad9"/><polygon points="861.2 821.52 860.79 821.66 860.95 821.32 860.44 820.9 860.41 820.97 770.48 747.6 804.74 918.67 803.77 918.84 803.77 918.85 814.69 975 817.91 975 881.57 838.12 861.45 821.43 861.2 821.52" style="fill:#097ad9"/><polygon points="529.89 704.49 632.67 698.22 698.07 543.84 620.99 616.86 529.89 704.49" style="fill:#097ad9"/><polygon points="251.93 822.01 313.45 739.96 220.8 650.24 251.93 822.01" style="fill:#097ad9"/><polygon points="40.16 726.73 141.9 804.62 220.8 650.24 158.5 677.36 40.16 726.73" style="fill:#097ad9"/><polygon points="0 765.41 0 872.38 52.62 803.7 40.16 726.73 0 718.86 0 765.41" style="fill:#097ad9"/><polygon points="183.43 501.42 0 547.03 0 562.67 58.07 598.78 183.43 501.42" style="fill:#097ad9"/><polygon points="3.83 227.89 0 230.92 0 386.25 0 386.27 5.9 387.37 3.83 227.89" style="fill:#097ad9"/><path d="M185.5,501.42l88.24-89.94-164,42.65,0.84,0.53,0.08,0.17c38.46,24.65,72.78,46.59,72.78,46.59l0.8-.8Z" style="fill:#097ad9"/><path d="M921.52,345.65V78.09c-4.16,14.81-127.68,214.7-127.68,214.7l127.68,53.78v-0.93Z" style="fill:#097ad9"/><polygon points="217.39 281.4 66.64 365.12 313.19 371.61 217.39 281.4" style="fill:#097ad9"/><polygon points="793.84 292.79 610.09 160.66 645.91 312.26 793.84 292.79" style="fill:#097ad9"/><polygon points="610.09 160.66 382.74 171.79 556.11 314.12 610.09 160.66" style="fill:#097ad9"/><path d="M190,949.22l0.39,0.06L119,918.67,69.23,897.35,0,911.71v11.55L189.12,949.1c-1.21,3.26-4.43,12.84-8.74,25.9h16.84c-3.79-13.21-6.42-22.5-7.27-25.79H190Z" style="fill:#097ad9"/></svg>