<svg id="wave" style="transform:rotate(0deg); transition: 0.3s" viewBox="0 0 3840 140" version="1.1" xmlns="http://www.w3.org/2000/svg"><defs><linearGradient id="sw-gradient-0" x1="0" x2="0" y1="1" y2="0"><stop stop-color="rgba(67, 198, 172, 1)" offset="0%"></stop><stop stop-color="#3276D5" offset="100%"></stop></linearGradient></defs><path style="transform:translate(0, 0px); opacity:1" fill="url(#sw-gradient-0)" d="M0,70L40,60.7C80,51,160,33,240,23.3C320,14,400,14,480,23.3C560,33,640,51,720,70C800,89,880,107,960,105C1040,103,1120,79,1200,65.3C1280,51,1360,47,1440,58.3C1520,70,1600,98,1680,98C1760,98,1840,70,1920,49C2000,28,2080,14,2160,9.3C2240,5,2320,9,2400,25.7C2480,42,2560,70,2640,81.7C2720,93,2800,89,2880,86.3C2960,84,3040,84,3120,91C3200,98,3280,112,3360,112C3440,112,3520,98,3600,84C3680,70,3760,56,3840,63C3920,70,4000,98,4080,95.7C4160,93,4240,61,4320,49C4400,37,4480,47,4560,58.3C4640,70,4720,84,4800,95.7C4880,107,4960,117,5040,112C5120,107,5200,89,5280,70C5360,51,5440,33,5520,42C5600,51,5680,89,5720,107.3L5760,126L5760,140L5720,140C5680,140,5600,140,5520,140C5440,140,5360,140,5280,140C5200,140,5120,140,5040,140C4960,140,4880,140,4800,140C4720,140,4640,140,4560,140C4480,140,4400,140,4320,140C4240,140,4160,140,4080,140C4000,140,3920,140,3840,140C3760,140,3680,140,3600,140C3520,140,3440,140,3360,140C3280,140,3200,140,3120,140C3040,140,2960,140,2880,140C2800,140,2720,140,2640,140C2560,140,2480,140,2400,140C2320,140,2240,140,2160,140C2080,140,2000,140,1920,140C1840,140,1760,140,1680,140C1600,140,1520,140,1440,140C1360,140,1280,140,1200,140C1120,140,1040,140,960,140C880,140,800,140,720,140C640,140,560,140,480,140C400,140,320,140,240,140C160,140,80,140,40,140L0,140Z"></path></svg>